<mxfile host="app.diagrams.net" modified="2021-08-05T14:21:32.227Z" agent="5.0 (Macintosh; Intel Mac OS X 10_15_7) AppleWebKit/537.36 (KHTML, like Gecko) Chrome/92.0.4515.107 Safari/537.36" etag="HIGrSx7WPtp_SH_pZHE3" version="14.9.4" type="github">
  <diagram id="wFE0QG_FPsp0jaGvCLVb" name="Page-1">
    <mxGraphModel dx="946" dy="643" grid="1" gridSize="10" guides="1" tooltips="1" connect="1" arrows="1" fold="1" page="1" pageScale="1" pageWidth="1654" pageHeight="2336" math="0" shadow="0">
      <root>
        <mxCell id="0" />
        <mxCell id="1" parent="0" />
        <mxCell id="N8r3qapJqdef7p7nUN8o-15" value="" style="rounded=1;whiteSpace=wrap;html=1;" vertex="1" parent="1">
          <mxGeometry x="240" y="330" width="640" height="350" as="geometry" />
        </mxCell>
        <mxCell id="N8r3qapJqdef7p7nUN8o-13" style="edgeStyle=orthogonalEdgeStyle;rounded=0;orthogonalLoop=1;jettySize=auto;html=1;" edge="1" parent="1" source="N8r3qapJqdef7p7nUN8o-1" target="N8r3qapJqdef7p7nUN8o-11">
          <mxGeometry relative="1" as="geometry">
            <Array as="points">
              <mxPoint x="525" y="560" />
              <mxPoint x="345" y="560" />
            </Array>
          </mxGeometry>
        </mxCell>
        <mxCell id="N8r3qapJqdef7p7nUN8o-14" style="edgeStyle=orthogonalEdgeStyle;rounded=0;orthogonalLoop=1;jettySize=auto;html=1;entryX=0.5;entryY=0;entryDx=0;entryDy=0;" edge="1" parent="1" source="N8r3qapJqdef7p7nUN8o-1" target="N8r3qapJqdef7p7nUN8o-12">
          <mxGeometry relative="1" as="geometry">
            <Array as="points">
              <mxPoint x="525" y="560" />
              <mxPoint x="705" y="560" />
            </Array>
          </mxGeometry>
        </mxCell>
        <mxCell id="N8r3qapJqdef7p7nUN8o-1" value="视图模块" style="rounded=1;whiteSpace=wrap;html=1;" vertex="1" parent="1">
          <mxGeometry x="480" y="480" width="90" height="50" as="geometry" />
        </mxCell>
        <mxCell id="N8r3qapJqdef7p7nUN8o-8" style="edgeStyle=orthogonalEdgeStyle;rounded=0;orthogonalLoop=1;jettySize=auto;html=1;" edge="1" parent="1" source="N8r3qapJqdef7p7nUN8o-2" target="N8r3qapJqdef7p7nUN8o-1">
          <mxGeometry relative="1" as="geometry" />
        </mxCell>
        <mxCell id="N8r3qapJqdef7p7nUN8o-2" value="错误码模块" style="rounded=1;whiteSpace=wrap;html=1;" vertex="1" parent="1">
          <mxGeometry x="480" y="360" width="90" height="50" as="geometry" />
        </mxCell>
        <mxCell id="N8r3qapJqdef7p7nUN8o-6" style="edgeStyle=orthogonalEdgeStyle;rounded=0;orthogonalLoop=1;jettySize=auto;html=1;entryX=0;entryY=0.5;entryDx=0;entryDy=0;exitX=0.5;exitY=1;exitDx=0;exitDy=0;" edge="1" parent="1" source="N8r3qapJqdef7p7nUN8o-3" target="N8r3qapJqdef7p7nUN8o-1">
          <mxGeometry relative="1" as="geometry" />
        </mxCell>
        <mxCell id="N8r3qapJqdef7p7nUN8o-3" value="业务数据模块" style="rounded=1;whiteSpace=wrap;html=1;" vertex="1" parent="1">
          <mxGeometry x="300" y="360" width="90" height="50" as="geometry" />
        </mxCell>
        <mxCell id="N8r3qapJqdef7p7nUN8o-7" style="edgeStyle=orthogonalEdgeStyle;rounded=0;orthogonalLoop=1;jettySize=auto;html=1;entryX=1;entryY=0.5;entryDx=0;entryDy=0;" edge="1" parent="1" source="N8r3qapJqdef7p7nUN8o-4" target="N8r3qapJqdef7p7nUN8o-1">
          <mxGeometry relative="1" as="geometry">
            <Array as="points">
              <mxPoint x="705" y="505" />
            </Array>
          </mxGeometry>
        </mxCell>
        <mxCell id="N8r3qapJqdef7p7nUN8o-4" value="PV / UV模块" style="rounded=1;whiteSpace=wrap;html=1;" vertex="1" parent="1">
          <mxGeometry x="660" y="360" width="90" height="50" as="geometry" />
        </mxCell>
        <mxCell id="N8r3qapJqdef7p7nUN8o-11" value="H5模块" style="rounded=1;whiteSpace=wrap;html=1;" vertex="1" parent="1">
          <mxGeometry x="300" y="600" width="90" height="50" as="geometry" />
        </mxCell>
        <mxCell id="N8r3qapJqdef7p7nUN8o-12" value="定时任务模块" style="rounded=1;whiteSpace=wrap;html=1;" vertex="1" parent="1">
          <mxGeometry x="660" y="600" width="90" height="50" as="geometry" />
        </mxCell>
        <mxCell id="N8r3qapJqdef7p7nUN8o-18" style="edgeStyle=orthogonalEdgeStyle;rounded=0;orthogonalLoop=1;jettySize=auto;html=1;entryX=0.5;entryY=0;entryDx=0;entryDy=0;" edge="1" parent="1" source="N8r3qapJqdef7p7nUN8o-16" target="N8r3qapJqdef7p7nUN8o-3">
          <mxGeometry relative="1" as="geometry" />
        </mxCell>
        <mxCell id="N8r3qapJqdef7p7nUN8o-16" value="信用付" style="rounded=1;whiteSpace=wrap;html=1;" vertex="1" parent="1">
          <mxGeometry x="250" y="236" width="90" height="50" as="geometry" />
        </mxCell>
        <mxCell id="N8r3qapJqdef7p7nUN8o-19" style="edgeStyle=orthogonalEdgeStyle;rounded=0;orthogonalLoop=1;jettySize=auto;html=1;" edge="1" parent="1" source="N8r3qapJqdef7p7nUN8o-17" target="N8r3qapJqdef7p7nUN8o-3">
          <mxGeometry relative="1" as="geometry" />
        </mxCell>
        <mxCell id="N8r3qapJqdef7p7nUN8o-17" value="微粒贷" style="rounded=1;whiteSpace=wrap;html=1;" vertex="1" parent="1">
          <mxGeometry x="360" y="236" width="90" height="50" as="geometry" />
        </mxCell>
        <mxCell id="N8r3qapJqdef7p7nUN8o-29" style="edgeStyle=orthogonalEdgeStyle;rounded=0;orthogonalLoop=1;jettySize=auto;html=1;" edge="1" parent="1" source="N8r3qapJqdef7p7nUN8o-20" target="N8r3qapJqdef7p7nUN8o-2">
          <mxGeometry relative="1" as="geometry" />
        </mxCell>
        <mxCell id="N8r3qapJqdef7p7nUN8o-20" value="mon.cf.com" style="rounded=1;whiteSpace=wrap;html=1;" vertex="1" parent="1">
          <mxGeometry x="480" y="236" width="90" height="50" as="geometry" />
        </mxCell>
        <mxCell id="N8r3qapJqdef7p7nUN8o-30" style="edgeStyle=orthogonalEdgeStyle;rounded=0;orthogonalLoop=1;jettySize=auto;html=1;entryX=0.5;entryY=0;entryDx=0;entryDy=0;" edge="1" parent="1" source="N8r3qapJqdef7p7nUN8o-22" target="N8r3qapJqdef7p7nUN8o-4">
          <mxGeometry relative="1" as="geometry" />
        </mxCell>
        <mxCell id="N8r3qapJqdef7p7nUN8o-22" value="Tcss点击流系统" style="rounded=1;whiteSpace=wrap;html=1;" vertex="1" parent="1">
          <mxGeometry x="660" y="236" width="90" height="50" as="geometry" />
        </mxCell>
        <mxCell id="N8r3qapJqdef7p7nUN8o-24" value="权 限&lt;br&gt;&lt;br&gt;模 块" style="rounded=1;whiteSpace=wrap;html=1;" vertex="1" parent="1">
          <mxGeometry x="780" y="380" width="60" height="250" as="geometry" />
        </mxCell>
        <mxCell id="N8r3qapJqdef7p7nUN8o-28" style="edgeStyle=orthogonalEdgeStyle;rounded=0;orthogonalLoop=1;jettySize=auto;html=1;" edge="1" parent="1" source="N8r3qapJqdef7p7nUN8o-27" target="N8r3qapJqdef7p7nUN8o-24">
          <mxGeometry relative="1" as="geometry" />
        </mxCell>
        <mxCell id="N8r3qapJqdef7p7nUN8o-27" value="power&lt;br&gt;&lt;br&gt;鉴权&lt;br&gt;&lt;br&gt;系统" style="rounded=1;whiteSpace=wrap;html=1;" vertex="1" parent="1">
          <mxGeometry x="920" y="380" width="60" height="250" as="geometry" />
        </mxCell>
      </root>
    </mxGraphModel>
  </diagram>
</mxfile>
